<?xml version="1.0" encoding="UTF-8"?>
<svg version="1.1" xmlns="http://www.w3.org/2000/svg" width="807" height="601">
<path d="M0 0 C0.83192871 0.39541992 1.66385742 0.79083984 2.52099609 1.19824219 C17.62004487 8.49894028 31.4143305 17.19585347 45 27 C45.74894531 27.53657227 46.49789062 28.07314453 47.26953125 28.62597656 C63.40902359 40.24375556 79.87677748 52.63147856 90 70 C90.60521484 71.0209375 90.60521484 71.0209375 91.22265625 72.0625 C99.72634322 87.58253705 98.98024183 106.25541031 96.5 123.1875 C94.37352227 137.97777805 93.62049074 150.06612736 102.5 163.0625 C108.9807563 170.98715537 117.32540904 177.61524867 125.04296875 184.29296875 C127.3855915 186.33633431 129.69273422 188.41680859 132 190.5 C134.95869751 193.17048344 137.92926472 195.82298058 140.9375 198.4375 C145.13442081 202.09178862 149.2365276 205.84744973 153.34765625 209.59765625 C155.52460996 211.56941844 157.71838674 213.51365337 159.9375 215.4375 C163.88667367 218.86768576 167.73022305 222.41003518 171.57788086 225.95288086 C174.3547637 228.50540453 177.14972015 231.02975746 180 233.5 C183.3905078 236.4384401 186.6996903 239.46114142 190 242.5 C193.93284841 246.12090134 197.90214012 249.68958925 201.94140625 253.19140625 C204.4895665 255.4301125 206.99410593 257.71410212 209.5 260 C213.28662998 263.45328153 217.1047632 266.86099051 220.97265625 270.22265625 C224.20124678 273.05311616 227.37913175 275.93961207 230.56640625 278.81640625 C232.67511146 280.70848685 234.79919801 282.57905758 236.9375 284.4375 C241.13442081 288.09178862 245.2365276 291.84744973 249.34765625 295.59765625 C251.52460996 297.56941844 253.71838674 299.51365337 255.9375 301.4375 C259.83402275 304.82404841 263.63352828 308.31337995 267.43286133 311.80786133 C272.2556492 316.24209414 277.12252629 320.62600745 282 325 C287.40293305 329.84521093 292.78363904 334.71208598 298.125 339.625 C301.36217216 342.60218281 304.61137729 345.55952856 307.9375 348.4375 C312.069109 352.01937309 316.06929927 355.73837958 320.07958984 359.45458984 C323.38523286 362.51572416 326.70851971 365.55417951 330.0625 368.5625 C334.81565163 372.82795041 339.55534248 377.10670503 344.23828125 381.44921875 C345.84209351 382.93053332 347.4584496 384.39891069 349.10546875 385.83203125 C357.23795892 393.21051571 361.5332015 403.96884763 362.25 414.765625 C362.5403829 422.13893801 362.77260871 428.95657832 358 435 C357.50242187 435.63421875 357.00484375 436.2684375 356.4921875 436.921875 C351.64861154 442.37371399 346.58512861 444.51045995 339.40234375 445.27734375 C325.50095239 445.7773938 314.424794 440.92832212 304.125 431.875 C296.34662151 424.61109694 288.68126315 417.16265262 281.7734375 409.05859375 C279.56390149 406.49377993 277.28331707 403.99930653 275 401.5 C271.56735239 397.73649479 268.1844499 393.93870649 264.84375 390.09375 C262.59123543 387.53580973 260.29682908 385.0182102 258 382.5 C254.56735239 378.73649479 251.1844499 374.93870649 247.84375 371.09375 C245.59123543 368.53580973 243.29682908 366.0182102 241 363.5 C237.56735239 359.73649479 234.1844499 355.93870649 230.84375 352.09375 C228.59123543 349.53580973 226.29682908 347.0182102 224 344.5 C220.54424587 340.71065874 217.1347711 336.88916302 213.76953125 333.01953125 C210.22423046 328.97334911 206.60541001 324.99256813 203 321 C198.22966063 315.71740942 193.48105593 310.42065865 188.8046875 305.0546875 C185.24360802 301.00029831 181.6158775 297.005467 178 293 C176.49971321 291.33359149 174.99971128 289.66692647 173.5 288 C172.7575 287.175 172.015 286.35 171.25 285.5 C137.5 248 137.5 248 135.2578125 245.5078125 C133.73291756 243.81407106 132.20684598 242.12138831 130.6796875 240.4296875 C127.28127068 236.66262885 123.8918339 232.89084414 120.5625 229.0625 C116.90942044 224.86696779 113.15494451 220.76626447 109.40625 216.65625 C106.84851229 213.83277331 104.34230031 210.96943998 101.84375 208.09375 C98.74549592 204.57539368 95.5735552 201.12444205 92.40234375 197.671875 C90.37369773 195.4156248 88.46839483 193.10837345 86.5625 190.75 C80.91688553 184.27884757 72.69818799 178.75204562 64 178 C55.26606705 177.5598802 46.96184621 178.0415239 38.29418945 179.27929688 C18.00537674 181.98151327 -2.98149389 180.32816482 -20 168 C-54.39195423 139.47871537 -86.18375287 92.61507276 -93 48 C-94.18273055 33.44401232 -94.61188381 17.59633232 -84.6875 5.8359375 C-84.130625 5.23007813 -83.57375 4.62421875 -83 4 C-82.401875 3.31164062 -81.80375 2.62328125 -81.1875 1.9140625 C-60.63243024 -20.38155752 -24.02793692 -11.42085635 0 0 Z " fill="#CA1616" transform="translate(229,127)"/>
<path d="M0 0 C0.99 0.4021875 0.99 0.4021875 2 0.8125 C1.4739075 4.60036597 0.61896089 6.98402224 -2 9.8125 C-2.66 9.8125 -3.32 9.8125 -4 9.8125 C-4.26505844 10.40320282 -4.53011688 10.99390564 -4.8032074 11.60250854 C-6.03819353 13.88302799 -7.3086774 15.35681756 -9.14868164 17.17236328 C-9.78596695 17.80626984 -10.42325226 18.44017639 -11.07984924 19.09329224 C-11.76635056 19.76633392 -12.45285187 20.43937561 -13.16015625 21.1328125 C-13.86522812 21.8326828 -14.57029999 22.5325531 -15.29673767 23.25363159 C-17.5472953 25.48638982 -19.80442896 27.71234265 -22.0625 29.9375 C-24.32325698 32.17066043 -26.58255022 34.40525286 -28.838974 36.64279175 C-30.24295051 38.03448888 -31.64959108 39.42350444 -33.05909729 40.80960083 C-33.69323044 41.43720306 -34.32736359 42.0648053 -34.98071289 42.71142578 C-35.54093643 43.2633963 -36.10115997 43.81536682 -36.67835999 44.38406372 C-38.10804773 45.79594859 -38.10804773 45.79594859 -39 47.8125 C-39.66 47.8125 -40.32 47.8125 -41 47.8125 C-41.2686084 48.40853027 -41.5372168 49.00456055 -41.81396484 49.61865234 C-43.00629328 51.82414088 -44.1740378 53.19118295 -45.9765625 54.9140625 C-46.56147461 55.48237793 -47.14638672 56.05069336 -47.74902344 56.63623047 C-48.67763184 57.52785889 -48.67763184 57.52785889 -49.625 58.4375 C-54.71865141 63.40465777 -59.31134743 68.39001761 -63.546875 74.1171875 C-64.02640625 74.67664063 -64.5059375 75.23609375 -65 75.8125 C-65.66 75.8125 -66.32 75.8125 -67 75.8125 C-67.2475 76.38097656 -67.495 76.94945312 -67.75 77.53515625 C-69.20095593 80.17861659 -70.9294293 82.05741353 -73 84.25 C-76.71336335 88.29491365 -80.16326042 92.45788511 -83.5 96.8125 C-83.933125 97.37638428 -84.36625 97.94026855 -84.8125 98.52124023 C-87.10751334 101.5379474 -87.10751334 101.5379474 -89 104.8125 C-88.58492187 104.44640625 -88.16984375 104.0803125 -87.7421875 103.703125 C-83.83205332 100.26744225 -79.89614296 96.86412071 -75.93725586 93.48486328 C-69.53745572 88.02050476 -63.21919871 82.48265228 -57 76.8125 C-55.12526256 75.10387854 -53.25025611 73.3955522 -51.375 71.6875 C-50.4571875 70.85089844 -49.539375 70.01429688 -48.59375 69.15234375 C-46.37831282 67.15377919 -44.13797458 65.19418253 -41.875 63.25 C-38.22147083 60.08112266 -34.83539027 56.6889792 -31.46875 53.21875 C-29.45902734 51.25990639 -27.42034505 49.43864786 -25.29150391 47.61499023 C-21.27732496 44.11371331 -17.55662695 40.40428719 -13.8671875 36.56640625 C-12.55413534 35.22127277 -11.24031097 33.87689271 -9.92578125 32.53320312 C-7.88648429 30.44429364 -5.8522653 28.3513178 -3.83056641 26.24536133 C-1.85647386 24.19267548 0.13611262 22.15957582 2.1328125 20.12890625 C2.73296173 19.49465225 3.33311096 18.86039825 3.95144653 18.20692444 C8.1971061 13.93405531 8.1971061 13.93405531 12.30419922 13.31225586 C15 13.8125 15 13.8125 17 15.5 C18 17.8125 18 17.8125 17.44213867 20.0612793 C15.50613322 23.75466772 12.9035456 26.26233778 9.92578125 29.14453125 C9.3237236 29.73997238 8.72166595 30.33541351 8.10136414 30.94889832 C6.17873729 32.84819197 4.24625905 34.73704748 2.3125 36.625 C-0.21602042 39.10685578 -2.740207 41.59305607 -5.26171875 44.08203125 C-5.86663147 44.67821762 -6.47154419 45.27440399 -7.0947876 45.88865662 C-10.7463598 49.507457 -14.22398791 53.21124278 -17.54711914 57.13696289 C-19.99590913 59.96103375 -22.69297513 62.52510726 -25.375 65.125 C-30.26886289 69.93461909 -34.68218355 74.93776353 -38.94921875 80.3203125 C-41.47484806 83.38955345 -44.23084029 86.13087676 -47.078125 88.8984375 C-51.09276487 92.8967577 -54.85601926 97.09652889 -58 101.8125 C-58.66 101.8125 -59.32 101.8125 -60 101.8125 C-60.40883423 102.69784424 -60.40883423 102.69784424 -60.82592773 103.60107422 C-61.9700715 105.75612812 -63.17942386 107.3683293 -64.78515625 109.1953125 C-65.31560547 109.80503906 -65.84605469 110.41476563 -66.39257812 111.04296875 C-67.21918945 111.98076172 -67.21918945 111.98076172 -68.0625 112.9375 C-69.1593674 114.18851485 -70.25450394 115.44105005 -71.34765625 116.6953125 C-71.83242432 117.24590332 -72.31719238 117.79649414 -72.81665039 118.36376953 C-74.09633185 119.82227737 -74.09633185 119.82227737 -75 121.8125 C-68.00911515 116.23905834 -61.33042562 110.44903046 -54.77734375 104.375 C-51.89037879 101.71135863 -48.95076666 99.12101652 -45.984375 96.546875 C-42.81097036 93.77326937 -39.68724066 90.9449714 -36.55859375 88.12109375 C-34.90747667 86.6313072 -33.25399856 85.14413123 -31.59765625 83.66015625 C-21.51522023 74.62354828 -11.5473646 65.54388234 -2.14453125 55.796875 C0 53.8125 0 53.8125 2 53.8125 C2 53.1525 2 52.4925 2 51.8125 C3.4621582 50.38476562 3.4621582 50.38476562 5.48828125 48.71875 C8.5268115 46.13857544 11.36001495 43.48411929 14.10546875 40.59375 C14.77900391 39.88992187 15.45253906 39.18609375 16.14648438 38.4609375 C17.52835415 37.00633774 18.90051867 35.54246666 20.26367188 34.0703125 C20.93333984 33.37679687 21.60300781 32.68328125 22.29296875 31.96875 C22.8861792 31.33775391 23.47938965 30.70675781 24.09057617 30.05664062 C26 28.8125 26 28.8125 28.60668945 28.99023438 C31 29.8125 31 29.8125 33 31.8125 C33.08071455 34.63750942 32.46200368 36.27891829 30.61328125 38.4140625 C29.4017386 39.60654717 28.1751892 40.78389445 26.9375 41.94921875 C25.11669146 43.70027857 23.50098866 45.50663847 21.875 47.4375 C18.59487452 51.25194456 15.07475263 54.77813435 11.5 58.3125 C7.44533373 62.32161462 3.56021834 66.3711452 -0.12890625 70.72265625 C-3.09962114 74.04067811 -6.28656583 77.14217822 -9.47485352 80.25024414 C-12.89256776 83.60862901 -16.05795336 87.12770693 -19.19238281 90.75097656 C-22.16734663 94.14381752 -25.27446198 97.4097769 -28.375 100.6875 C-33.99555955 106.66084886 -39.5845456 112.65137201 -45 118.8125 C-45.50225098 119.38307129 -46.00450195 119.95364258 -46.52197266 120.54150391 C-48.18745091 122.43907715 -49.84484759 124.3434166 -51.5 126.25 C-52.02940186 126.85408691 -52.55880371 127.45817383 -53.10424805 128.08056641 C-55.31049098 130.64011197 -56.92060197 132.57430592 -58 135.8125 C-44.53916099 124.98226155 -31.6460377 113.57702237 -19 101.8125 C-17.11075893 100.05495195 -15.21445554 98.30641339 -13.3125 96.5625 C-12.52488281 95.83546875 -11.73726562 95.1084375 -10.92578125 94.359375 C-9 92.8125 -9 92.8125 -7 92.8125 C-7 92.1525 -7 91.4925 -7 90.8125 C-5.70703125 89.54296875 -5.70703125 89.54296875 -3.8125 88 C0.95590259 83.97639279 5.27798618 79.56650395 9.60620117 75.08081055 C11.03482136 73.62191666 12.51364992 72.2125323 14 70.8125 C14.66 70.8125 15.32 70.8125 16 70.8125 C16.33 69.8225 16.66 68.8325 17 67.8125 C18.56201172 66.28710938 18.56201172 66.28710938 20.5546875 64.65625 C23.56982935 62.10218423 26.36211162 59.47162446 29.0703125 56.59375 C29.73933594 55.88992187 30.40835938 55.18609375 31.09765625 54.4609375 C32.46854008 53.00817044 33.82767568 51.54424126 35.17578125 50.0703125 C37.0465059 48.12360097 38.78679481 46.3597748 41 44.8125 C44.4921875 44.84375 44.4921875 44.84375 47 45.8125 C48 48.3125 48 48.3125 48 51.8125 C46.20477936 54.09773124 44.21548151 55.9635674 42.0703125 57.921875 C39.76127793 60.0305028 37.90700053 62.34046228 36 64.8125 C34.375 66.625 34.375 66.625 33 67.8125 C32.34 67.8125 31.68 67.8125 31 67.8125 C30.67 68.8025 30.34 69.7925 30 70.8125 C28.5625 72.5 28.5625 72.5 27 73.8125 C26.34 73.8125 25.68 73.8125 25 73.8125 C24.67 74.8025 24.34 75.7925 24 76.8125 C23.34 76.8125 22.68 76.8125 22 76.8125 C21.73195557 77.40724121 21.46391113 78.00198242 21.18774414 78.61474609 C19.99020301 80.83062796 18.79681017 82.23329528 16.99609375 83.9765625 C16.13274414 84.82347656 16.13274414 84.82347656 15.25195312 85.6875 C14.65318359 86.265 14.05441406 86.8425 13.4375 87.4375 C12.24650616 88.59410151 11.05759995 89.75285778 9.87109375 90.9140625 C9.34443115 91.42275879 8.81776855 91.93145508 8.27514648 92.45556641 C6.8835783 93.80650105 6.8835783 93.80650105 6 95.8125 C5.34 95.8125 4.68 95.8125 4 95.8125 C3.75636719 96.38484375 3.51273438 96.9571875 3.26171875 97.546875 C1.77482702 100.21683538 0.01916092 101.95079007 -2.1875 104.0625 C-5.67596998 107.47320154 -8.95484129 110.95830219 -12.12890625 114.66015625 C-14.33079829 117.19302162 -16.60195826 119.65582522 -18.875 122.125 C-23.79741285 127.52401561 -28.41584624 133.12623262 -33 138.8125 C-35.38217252 141.70993867 -37.76678271 144.60535098 -40.15234375 147.5 C-42.10145442 149.87150021 -42.10145442 149.87150021 -44 152.8125 C-43.58492187 152.44640625 -43.16984375 152.0803125 -42.7421875 151.703125 C-38.83179462 148.26721494 -34.89555312 144.86375031 -30.93652344 141.48413086 C-25.29652229 136.66884686 -19.71542833 131.80399838 -14.22265625 126.8203125 C-12.18794248 124.98227581 -10.13245111 123.17313935 -8.0625 121.375 C-3.9504277 117.79458958 0.07263136 114.11948816 4.09375 110.4375 C6.31245411 108.4335092 8.55391717 106.47588756 10.8203125 104.52734375 C15.99889408 100.01108194 20.74376991 95.08502374 25.52734375 90.15820312 C26.20667969 89.46791016 26.88601563 88.77761719 27.5859375 88.06640625 C28.49931885 87.12776733 28.49931885 87.12776733 29.43115234 86.17016602 C31 84.8125 31 84.8125 33 84.8125 C33 84.1525 33 83.4925 33 82.8125 C34.66215268 81.47354368 36.32963607 80.14119858 38 78.8125 C38.66 77.9875 39.32 77.1625 40 76.3125 C42.11041721 73.67447849 44.34322642 71.88607938 47 69.8125 C49.62023252 67.2577733 52.12707185 64.66993158 54.5625 61.9375 C55.366875 61.23625 56.17125 60.535 57 59.8125 C59.3125 60 59.3125 60 61 60.8125 C61.93495004 63.31334796 62.11245828 64.49562247 61.20703125 67.046875 C56.67350318 75.22500406 51.16054976 82.52172369 45.46337891 89.90820312 C43.40619431 92.58522012 41.39151585 95.29220962 39.375 98 C37.91790592 99.93843215 36.45956087 101.87592456 35 103.8125 C34.22269531 104.84761719 33.44539062 105.88273437 32.64453125 106.94921875 C27.76614391 113.39932456 22.68409321 119.62147639 17.38256836 125.72875977 C14.42504398 129.13641416 11.55696369 132.59089905 8.75 136.125 C4.07361673 141.89767824 -1.02474552 147.25309169 -6.15332031 152.62426758 C-9.33198268 155.95621768 -12.45893044 159.30710192 -15.46875 162.79296875 C-19.271557 167.17581939 -23.28769811 171.32057998 -27.375 175.4375 C-28.43074219 176.52417969 -28.43074219 176.52417969 -29.5078125 177.6328125 C-44.10255403 192.334085 -65.14926252 201.6108 -86 201.8125 C-87.71229939 201.78471984 -89.42453777 201.75306102 -91.13671875 201.71875 C-106.02299885 201.44931507 -117.72344399 202.02459475 -129 212.8125 C-132.6460161 216.51675108 -136.13561563 220.35816047 -139.59375 224.23730469 C-140.83466651 225.62730353 -142.0882621 227.00596077 -143.34375 228.3828125 C-146.66261541 232.02634952 -149.92047669 235.69763563 -153.046875 239.5078125 C-153.57732422 240.14726807 -154.10777344 240.78672363 -154.65429688 241.44555664 C-155.6974494 242.70688381 -156.73050568 243.97664747 -157.75195312 245.25561523 C-159.76909989 247.68576126 -161.39326555 249.56877658 -164.359375 250.76025391 C-167 250.8125 -167 250.8125 -169.47949219 249.06176758 C-170.75034668 247.7724231 -170.75034668 247.7724231 -172.046875 246.45703125 C-172.97371094 245.52439453 -173.90054687 244.59175781 -174.85546875 243.63085938 C-175.33032715 243.13739014 -175.80518555 242.6439209 -176.29443359 242.13549805 C-177.74328015 240.63197345 -179.21462492 239.15377707 -180.69140625 237.67773438 C-188.81834329 229.39735167 -188.81834329 229.39735167 -189 225.8125 C-187.39222629 223.95351165 -185.82094506 222.43866735 -184 220.8125 C-182.95503798 219.73234495 -181.91360425 218.64876966 -180.875 217.5625 C-178.10292468 214.78450144 -175.19561734 212.31753652 -172.125 209.875 C-166.92941289 205.68244984 -162.00740844 201.24012898 -157.125 196.6875 C-156.39941895 196.01855713 -155.67383789 195.34961426 -154.92626953 194.66040039 C-149.72045942 189.76418692 -144.65293523 184.65111277 -142.25 177.75 C-142.02828125 177.14027344 -141.8065625 176.53054688 -141.578125 175.90234375 C-140.28755357 171.23710242 -139.87290517 166.63691504 -139.7890625 161.8125 C-139.05938121 130.28756574 -131.07683928 107.77549514 -109 84.8125 C-107.14127148 83.08024166 -105.23838857 81.42769995 -103.296875 79.7890625 C-100.29388426 77.20485619 -97.40135187 74.50971174 -94.5 71.8125 C-91.05914181 68.62016718 -87.61749539 65.4407057 -84.0625 62.375 C-80.97363894 59.70971693 -77.99178059 56.94519762 -75.01757812 54.15380859 C-68.55069513 48.08894901 -61.9427817 42.33304071 -55 36.8125 C-53.82465955 35.85783022 -52.65023343 34.90203404 -51.4765625 33.9453125 C-39.02154014 23.82773732 -26.02521995 14.66008906 -12.60351562 5.87402344 C-11.2064937 4.94919832 -9.82804124 3.99644283 -8.453125 3.0390625 C-3.6514864 -0.2282179 -3.6514864 -0.2282179 0 0 Z " fill="#C21515" transform="translate(603,109.1875)"/>
<path d="M0 0 C1.40625 1.41015625 1.40625 1.41015625 1.40625 3.41015625 C1.98375 3.69890625 2.56125 3.98765625 3.15625 4.28515625 C5.23958333 5.32682292 7.32291667 6.36848958 9.40625 7.41015625 C10.40591797 6.44916016 10.40591797 6.44916016 11.42578125 5.46875 C21.0196345 -3.53471229 31.34802987 -10.2185955 43.40625 -15.58984375 C44.74236328 -16.21439453 44.74236328 -16.21439453 46.10546875 -16.8515625 C59.48721679 -22.0545614 78.10724915 -22.05428074 91.59375 -17.33984375 C93.55121587 -16.46662477 95.49307972 -15.55626163 97.40625 -14.58984375 C98.15003906 -14.29078125 98.89382813 -13.99171875 99.66015625 -13.68359375 C105.92783849 -11.03424079 110.55403174 -6.23988625 115.40625 -1.58984375 C116.293125 -0.78546875 117.18 0.01890625 118.09375 0.84765625 C131.00287404 15.15236127 136.17226903 33.80494227 135.6953125 52.83984375 C132.97280676 86.46646869 113.51995223 115.17264768 91.7734375 139.83544922 C90.38566692 141.43386355 89.04049435 143.06169533 87.69921875 144.69921875 C85.40625 147.41015625 85.40625 147.41015625 83.03125 149.28515625 C80.76826412 151.1170972 79.14433293 152.8116724 77.28515625 155.01953125 C73.35249384 159.56172549 69.10242378 163.68243785 64.71875 167.78515625 C63.97302734 168.49542969 63.22730469 169.20570313 62.45898438 169.9375 C61.73646484 170.61683594 61.01394531 171.29617187 60.26953125 171.99609375 C59.62282471 172.60501465 58.97611816 173.21393555 58.30981445 173.84130859 C56.42436496 175.39522657 54.62953043 176.41565264 52.40625 177.41015625 C52.40625 178.07015625 52.40625 178.73015625 52.40625 179.41015625 C50.35830564 181.15515026 48.30056677 182.79093857 46.15625 184.41015625 C44.85556309 185.40988897 43.55610288 186.41121951 42.2578125 187.4140625 C41.60458008 187.91824707 40.95134766 188.42243164 40.27832031 188.94189453 C37.63953322 191.01149098 35.08643503 193.17610092 32.53125 195.34765625 C27.75042197 199.33167961 22.93342304 203.26358892 18.03125 207.09765625 C17.36496582 207.63962646 16.69868164 208.18159668 16.01220703 208.73999023 C12.97763388 211.07524573 11.24162493 212.36956258 7.3515625 212.55859375 C3.58465181 211.08979834 0.72027135 208.91735678 -2.34375 206.34765625 C-2.95863281 205.84741943 -3.57351563 205.34718262 -4.20703125 204.83178711 C-5.44307848 203.82556338 -6.67558387 202.81497132 -7.90429688 201.79980469 C-10.1063964 199.98848236 -12.35072563 198.23291047 -14.59375 196.47265625 C-19.48576445 192.55904469 -24.22426285 188.47024277 -28.94921875 184.35766602 C-32.0681905 181.59275713 -32.0681905 181.59275713 -35.59375 179.41015625 C-35.59375 178.75015625 -35.59375 178.09015625 -35.59375 177.41015625 C-36.17552002 177.14984619 -36.75729004 176.88953613 -37.35668945 176.62133789 C-39.74591048 175.32777405 -41.4199802 173.9005139 -43.38671875 172.03125 C-44.09521973 171.36158203 -44.8037207 170.69191406 -45.53369141 170.00195312 C-46.27538574 169.29103516 -47.01708008 168.58011719 -47.78125 167.84765625 C-48.54356934 167.12255859 -49.30588867 166.39746094 -50.09130859 165.65039062 C-57.92992121 158.17484715 -65.57715487 150.66912637 -72.59375 142.41015625 C-73.45097656 141.41886719 -74.30820312 140.42757812 -75.19140625 139.40625 C-81.01569132 132.64249872 -86.50942756 125.75636294 -91.59375 118.41015625 C-92.16343506 117.59538818 -92.16343506 117.59538818 -92.74462891 116.76416016 C-110.20593342 91.69386189 -123.49497628 65.49153012 -117.94140625 34.00390625 C-113.60172167 16.2726628 -103.56069089 -0.37618031 -87.9296875 -10.27734375 C-57.57313883 -27.37962469 -26.4991075 -20.91254193 0 0 Z M-87.65625 17.72265625 C-96.47087887 29.94939952 -98.8255597 44.0798697 -96.78125 58.78515625 C-94.88488866 70.03432011 -91.05790096 78.85101997 -85.52783203 88.72558594 C-84.75423722 90.12072556 -84.01160702 91.53298396 -83.27734375 92.94921875 C-79.78715487 99.63773403 -75.23671295 105.48506792 -70.59375 111.41015625 C-69.84609375 112.36535156 -69.0984375 113.32054687 -68.328125 114.3046875 C-63.96412639 119.75968577 -59.38367663 124.79413294 -54.34375 129.6328125 C-52.59375 131.41015625 -52.59375 131.41015625 -51.59375 133.41015625 C-50.93375 133.41015625 -50.27375 133.41015625 -49.59375 133.41015625 C-49.34302734 133.98540039 -49.09230469 134.56064453 -48.83398438 135.15332031 C-47.42646173 137.71456821 -45.81204975 139.45073017 -43.75 141.51953125 C-42.99847656 142.27363281 -42.24695313 143.02773437 -41.47265625 143.8046875 C-40.68761719 144.58199219 -39.90257812 145.35929688 -39.09375 146.16015625 C-38.30871094 146.95292969 -37.52367187 147.74570313 -36.71484375 148.5625 C-35.96332031 149.31144531 -35.21179688 150.06039062 -34.4375 150.83203125 C-33.74849609 151.5187793 -33.05949219 152.20552734 -32.34960938 152.91308594 C-30.72467041 154.62642374 -30.72467041 154.62642374 -28.59375 154.41015625 C-28.59375 155.07015625 -28.59375 155.73015625 -28.59375 156.41015625 C-27.14691948 157.91289511 -27.14691948 157.91289511 -25.21875 159.47265625 C-22.07196792 162.14081937 -19.00167312 164.86323873 -15.96875 167.66015625 C-9.78075163 173.25241565 -3.2039516 178.33178978 3.40625 183.41015625 C4.09976563 184.05210937 4.79328125 184.6940625 5.5078125 185.35546875 C7.40359866 186.67934479 7.40359866 186.67934479 9.76953125 185.91796875 C13.03624741 184.04989106 15.78770592 181.76608684 18.59375 179.28515625 C19.74384412 178.28926926 20.89489567 177.29448694 22.046875 176.30078125 C22.61341797 175.81029297 23.17996094 175.31980469 23.76367188 174.81445312 C26.08086265 172.83340655 28.45631927 170.93063156 30.84375 169.03515625 C31.63394531 168.40609375 32.42414063 167.77703125 33.23828125 167.12890625 C34.60839587 166.04268925 35.98053394 164.95901536 37.35546875 163.87890625 C38.74233479 162.76682719 40.08145549 161.59549871 41.40625 160.41015625 C41.40625 159.75015625 41.40625 159.09015625 41.40625 158.41015625 C41.93984131 158.20036133 42.47343262 157.99056641 43.02319336 157.77441406 C46.34141204 155.87479251 48.85408919 153.26748282 51.53515625 150.58203125 C52.12489731 149.99657532 52.71463837 149.41111938 53.32225037 148.80792236 C54.57293301 147.56298063 55.82100578 146.31541229 57.06665039 145.06542969 C58.92930687 143.19966519 60.80471334 141.3474863 62.68164062 139.49609375 C69.75442185 132.45885768 76.20393104 125.21290508 82.21459961 117.24707031 C84.40625 114.41015625 84.40625 114.41015625 86.20532227 112.64355469 C87.63878762 111.45824489 87.63878762 111.45824489 87.40625 109.41015625 C88.06625 109.41015625 88.72625 109.41015625 89.40625 109.41015625 C91.11912809 106.89753717 92.71746226 104.38842971 94.28125 101.78515625 C95.15281498 100.35496209 96.02519952 98.92526703 96.8984375 97.49609375 C97.53519409 96.44723999 97.53519409 96.44723999 98.18481445 95.37719727 C99.2461524 93.66798282 100.36992375 91.99784482 101.50390625 90.3359375 C103.61809826 87.08433624 105.33431907 83.73025522 106.96875 80.22265625 C107.40477539 79.32836914 107.40477539 79.32836914 107.84960938 78.41601562 C112.20593476 69.12836888 113.90539633 60.1315374 113.78125 49.91015625 C113.79865234 48.47736328 113.79865234 48.47736328 113.81640625 47.015625 C113.76244473 33.7231045 109.53177574 22.42044793 100.64453125 12.4296875 C90.42129289 3.15966484 78.841274 0.62184131 65.33642578 1.2578125 C48.06558199 2.62095524 33.85067183 13.32064174 22.40625 25.41015625 C23.73272556 29.0595817 25.38067162 31.97980563 27.59375 35.16015625 C30.69068227 39.94161235 33.04927762 44.78875746 35.21875 50.03515625 C35.50838623 50.72706055 35.79802246 51.41896484 36.09643555 52.13183594 C39.49719776 60.60921434 40.79790171 68.66584879 40.78125 77.78515625 C40.77963867 78.7069165 40.77802734 79.62867676 40.77636719 80.57836914 C40.57864357 91.55687609 37.36750963 99.59839497 30.21875 107.97265625 C22.70990994 114.48031764 15.53538579 116.82582579 5.72265625 116.765625 C-1.158111 116.02811049 -7.76802778 113.41189265 -12.59375 108.41015625 C-13.25375 108.41015625 -13.91375 108.41015625 -14.59375 108.41015625 C-14.59375 107.75015625 -14.59375 107.09015625 -14.59375 106.41015625 C-15.25375 106.41015625 -15.91375 106.41015625 -16.59375 106.41015625 C-16.8825 105.82878906 -17.17125 105.24742187 -17.46875 104.6484375 C-18.16439941 103.26438503 -18.87066019 101.88554123 -19.59375 100.515625 C-19.92375 99.88269531 -20.25375 99.24976563 -20.59375 98.59765625 C-20.92375 97.97246094 -21.25375 97.34726563 -21.59375 96.703125 C-28.00279025 82.00739599 -24.61061148 65.68379418 -19.05078125 51.3046875 C-15.78803221 43.32274085 -11.80500119 36.17064421 -6.90234375 29.08203125 C-5.31117929 26.56315682 -5.31117929 26.56315682 -6.1328125 24.2890625 C-15.60701739 12.10432305 -31.66721501 3.26299572 -46.92382812 1.07617188 C-63.60699992 -0.44048011 -76.48653393 5.19903521 -87.65625 17.72265625 Z M7.40625 44.41015625 C-3.57378066 64.93814861 -3.57378066 64.93814861 -2.90234375 87.71484375 C-0.76505681 91.88210616 2.22593321 94.44294835 6.40625 96.41015625 C10.86927205 96.48845488 12.76027961 95.94128746 16.21875 93.09765625 C21.34439928 86.80042999 21.13383265 80.43396382 20.64892578 72.578125 C19.51365616 62.43607851 14.6163825 53.02209348 9.40625 44.41015625 C8.74625 44.41015625 8.08625 44.41015625 7.40625 44.41015625 Z " fill="#C21515" transform="translate(391.59375,36.58984375)"/>
<path d="M0 0 C1.80175781 1.29418945 1.80175781 1.29418945 3.453125 3.11328125 C4.06833008 3.77948486 4.68353516 4.44568848 5.31738281 5.13208008 C5.95514648 5.85161865 6.59291016 6.57115723 7.25 7.3125 C7.9109668 8.03783936 8.57193359 8.76317871 9.25292969 9.51049805 C13.7593043 14.4934025 18.09996601 19.59162366 22.265625 24.86328125 C23.8905517 27.00961595 23.8905517 27.00961595 25.796875 28.48046875 C27 30 27 30 27.03125 32.30078125 C25.62519123 35.98103355 23.21194892 38.42431779 20.5 41.1875 C16.83450879 44.78507047 16.83450879 44.78507047 14 49 C13.34 49 12.68 49 12 49 C11.67708984 49.80244141 11.67708984 49.80244141 11.34765625 50.62109375 C9.50752706 53.86932181 7.00171255 56.38436655 4.4375 59.0625 C0.54189575 63.19588333 -3.19808756 67.37415914 -6.75 71.8125 C-9.9913195 75.84952248 -13.40460692 79.51442618 -17.11328125 83.12109375 C-19.54359404 85.54134313 -21.76283594 88.10978803 -23.99609375 90.7109375 C-27.04500498 94.19370939 -30.19995068 97.5787863 -33.35668945 100.96386719 C-35.98178987 103.7624391 -35.98178987 103.7624391 -38 107 C-38.66 107 -39.32 107 -40 107 C-40.27239502 107.59458008 -40.54479004 108.18916016 -40.82543945 108.80175781 C-41.97029488 110.94440556 -43.12644698 112.42006637 -44.79296875 114.171875 C-45.33703369 114.74945557 -45.88109863 115.32703613 -46.44165039 115.92211914 C-47.30584595 116.82692017 -47.30584595 116.82692017 -48.1875 117.75 C-49.37844742 119.01352863 -50.56855996 120.27784474 -51.7578125 121.54296875 C-52.32532227 122.14544434 -52.89283203 122.74791992 -53.47753906 123.36865234 C-55.21554666 125.2309626 -56.90068615 127.13198491 -58.5625 129.0625 C-63.06289387 134.27406722 -67.78323228 139.28703069 -72.46240234 144.33740234 C-74.83708147 146.90513255 -77.20034727 149.48325014 -79.5625 152.0625 C-80.00916016 152.54968506 -80.45582031 153.03687012 -80.91601562 153.53881836 C-83.24416066 156.07903289 -85.56798708 158.623064 -87.88671875 161.171875 C-90.57753598 164.12734782 -93.28437519 167.06729547 -96 170 C-96.95519531 171.03833984 -96.95519531 171.03833984 -97.9296875 172.09765625 C-105.86416964 180.41606495 -116.32799987 187.16628571 -128 188 C-128.68707031 188.0515625 -129.37414062 188.103125 -130.08203125 188.15625 C-138.51817685 188.51083405 -146.63896342 186.40181504 -153.23828125 180.98046875 C-158.76582896 174.76657365 -160.93340302 166.4549472 -160.546875 158.2734375 C-157.6091343 140.68896101 -147.35132128 128.11815862 -134.20703125 116.69140625 C-130.08395841 113.1007148 -126.0962669 109.38197239 -122.125 105.625 C-116.15368538 100.00160937 -110.12386143 94.45731869 -104 89 C-102.29115804 87.45889713 -100.58283099 85.91722314 -98.875 84.375 C-95.93506943 81.72814662 -92.98228278 79.09901752 -90 76.5 C-83.06184371 70.44815509 -76.25752371 64.25214069 -69.5 58 C-62.11298355 51.16544519 -54.65160636 44.42236683 -47.0625 37.8125 C-44.69035571 35.72788836 -42.34443935 33.61571356 -40 31.5 C-37.01937279 28.81016569 -34.02754767 26.13689636 -31 23.5 C-28.06294377 20.93888697 -25.14928835 18.35381948 -22.25 15.75 C-21.41597656 15.00363281 -20.58195313 14.25726563 -19.72265625 13.48828125 C-17.74064994 11.67689241 -15.79808684 9.84840597 -13.87109375 7.98046875 C-13.07687012 7.2220166 -13.07687012 7.2220166 -12.26660156 6.44824219 C-11.23400584 5.46034757 -10.21072437 4.46260021 -9.19824219 3.45410156 C-6.04430338 0.45882453 -4.32430574 -0.55293993 0 0 Z " fill="#C91616" transform="translate(355,391)"/>
<path d="M0 0 C-1.58667578 3.90285767 -4.13350481 6.33520982 -7.125 9.25 C-8.03507813 10.14203125 -8.94515625 11.0340625 -9.8828125 11.953125 C-10.58148438 12.62859375 -11.28015625 13.3040625 -12 14 C-12.66 13.67 -13.32 13.34 -14 13 C-2.80645161 0 -2.80645161 0 0 0 Z " fill="#870D0D" transform="translate(156,123)"/>
<path d="M0 0 C0 3 0 3 -1.828125 5.19140625 C-2.62734375 5.97386719 -3.4265625 6.75632812 -4.25 7.5625 C-5.03890625 8.34753906 -5.8278125 9.13257813 -6.640625 9.94140625 C-8.7267613 11.76159471 -10.47089399 12.92687015 -13 14 C-11.47238013 10.37190281 -9.29392861 8.05653702 -6.5 5.3125 C-5.7059375 4.52488281 -4.911875 3.73726562 -4.09375 2.92578125 C-2 1 -2 1 0 0 Z " fill="#800C0C" transform="translate(219,510)"/>
<path d="M0 0 C0 3 0 3 -1.96875 5.26171875 C-2.8040625 6.06222656 -3.639375 6.86273438 -4.5 7.6875 C-5.3353125 8.49574219 -6.170625 9.30398437 -7.03125 10.13671875 C-7.6809375 10.75160156 -8.330625 11.36648437 -9 12 C-9.66 11.67 -10.32 11.34 -11 11 C-9.92173635 9.72486237 -8.83714481 8.45507431 -7.75 7.1875 C-7.14671875 6.47980469 -6.5434375 5.77210937 -5.921875 5.04296875 C-4.07629602 3.08110329 -2.20054668 1.54330375 0 0 Z " fill="#7E0C0C" transform="translate(299,30)"/>
</svg>
