<!-- /assets/icons/icons.svg -->
<svg xmlns="http://www.w3.org/2000/svg" style="display: none;">
  <!-- dine-in symbol -->
  <symbol id="dine-in" viewBox="0 0 463.002 463.002">
    			<path d="M343.002,239.501v-16.5h8.5c4.142,0,7.5-3.358,7.5-7.5c0-4.142-3.358-7.5-7.5-7.5h-13.594l3-9h2.594
				c4.142,0,7.5-3.358,7.5-7.5c0-4.142-3.358-7.5-7.5-7.5h-7.841c-0.011,0-0.022,0-0.033,0h-48.254c-0.01,0-0.02,0-0.03,0h-7.842
				c-4.142,0-7.5,3.358-7.5,7.5c0,4.142,3.358,7.5,7.5,7.5h2.594l3,9h-36.741l6.544-39.267c0.362-2.174-0.25-4.398-1.675-6.081
				s-3.518-2.652-5.723-2.652h-8.525c0.011-0.166,0.025-0.331,0.025-0.5c0-4.687,3.813-8.5,8.5-8.5c4.142,0,7.5-3.358,7.5-7.5
				c0-4.142-3.358-7.5-7.5-7.5c-2.997,0-5.862,0.57-8.5,1.598v-19.832c9.29-3.138,16-11.93,16-22.266
				c0-12.958-10.542-23.5-23.5-23.5s-23.5,10.542-23.5,23.5c0,10.335,6.71,19.127,16,22.266v6.916
				c-4.802-2.965-10.454-4.681-16.5-4.681c-4.142,0-7.5,3.358-7.5,7.5c0,4.142,3.358,7.5,7.5,7.5c9.098,0,16.5,7.402,16.5,16.5v8
				c0,0.169,0.014,0.334,0.025,0.5h-8.525c-2.205,0-4.298,0.97-5.723,2.652c-1.425,1.682-2.038,3.906-1.675,6.081l6.544,39.267
				h-36.741l3-9h2.594c4.142,0,7.5-3.358,7.5-7.5c0-4.142-3.358-7.5-7.5-7.5h-7.841c-0.011,0-0.022,0-0.033,0h-48.254
				c-0.01,0-0.02,0-0.03,0H119.5c-4.142,0-7.5,3.358-7.5,7.5c0,4.142,3.358,7.5,7.5,7.5h2.594l3,9H111.5c-4.142,0-7.5,3.358-7.5,7.5
				c0,4.142,3.358,7.5,7.5,7.5h8.5v16.5c0,8.547,6.953,15.5,15.5,15.5H224v82.234c-9.29,3.138-16,11.93-16,22.266v16.5h-16.5
				c-4.142,0-7.5,3.358-7.5,7.5c0,4.142,3.358,7.5,7.5,7.5h80c4.142,0,7.5-3.358,7.5-7.5c0-4.142-3.358-7.5-7.5-7.5H255v-16.5
				c0-10.335-6.71-19.127-16-22.266v-82.234h88.502v-0.001C336.049,255.001,343.002,248.048,343.002,239.501z M325.095,199.001l-3,9
				h-21.188l-3-9H325.095z M223.002,95.501c0-4.687,3.813-8.5,8.5-8.5c4.687,0,8.5,3.813,8.5,8.5c0,4.687-3.813,8.5-8.5,8.5
				C226.815,104.001,223.002,100.188,223.002,95.501z M238.648,175.001l-5.5,33h-3.293l-5.5-33H238.648z M165.096,199.001l-3,9
				h-21.188l-3-9H165.096z M240.002,359.501v16.5h-17v-16.5c0-4.687,3.813-8.5,8.5-8.5
				C236.189,351.001,240.002,354.814,240.002,359.501z M328.001,239.501c0,0.275-0.224,0.5-0.5,0.5h-192
				c-0.275,0-0.499-0.225-0.499-0.5v-16.5h0.474c0.008,0,0.017,0.002,0.025,0.002s0.016-0.002,0.024-0.002h191.953
				c0.008,0,0.016,0.002,0.024,0.002s0.016-0.002,0.025-0.002h0.474V239.501z"/>
			<path d="M103.502,272.001h-73.38l-15.179-121.43c-0.514-4.11-4.265-7.024-8.372-6.512c-4.11,0.514-7.026,4.263-6.512,8.373
				l15.942,127.537v31.533v72c0,4.142,3.358,7.5,7.5,7.5s7.5-3.358,7.5-7.5v-32.5h65v32.5c0,4.142,3.358,7.5,7.5,7.5
				c4.142,0,7.5-3.358,7.5-7.5v-65.734c9.29-3.138,16-11.93,16-22.266C127.002,282.543,116.46,272.001,103.502,272.001z
				 M96.002,336.001h-65v-17h65V336.001z M103.502,304.001h-72.5v-17h72.5c4.687,0,8.5,3.813,8.5,8.5
				S108.189,304.001,103.502,304.001z"/>
			<path d="M456.432,144.058c-4.115-0.514-7.859,2.402-8.372,6.512L432.881,272h-73.379c-12.958,0-23.5,10.542-23.5,23.5
				c0,10.335,6.71,19.127,16,22.266V383.5c0,4.142,3.358,7.5,7.5,7.5c4.142,0,7.5-3.358,7.5-7.5V351h65v32.5
				c0,4.142,3.358,7.5,7.5,7.5c4.142,0,7.5-3.358,7.5-7.5v-72v-31.533l15.942-127.537
				C463.458,148.321,460.542,144.572,456.432,144.058z M432.002,336.001h-65v-17h65V336.001z M432.002,304.001h-72.5
				c-4.687,0-8.5-3.813-8.5-8.5s3.813-8.5,8.5-8.5h72.5V304.001z"/>
  </symbol>
  <!-- fork symbol -->

	<symbol id="fork" viewBox="0 0 512 512">
	  <g transform="scale(1.1) translate(-20,-20)">
			<path d="M188.016,32c-4.142,0-7.5,3.357-7.5,7.5v64c0,4.143,3.358,7.5,7.5,7.5c4.142,0,7.5-3.357,7.5-7.5v-64
				C195.516,35.358,192.158,32,188.016,32z"/>
			<path d="M212.016,32c-4.142,0-7.5,3.357-7.5,7.5v56c0,4.143,3.358,7.5,7.5,7.5c4.142,0,7.5-3.357,7.5-7.5v-56
				C219.516,35.358,216.158,32,212.016,32z"/>
			<path d="M164.016,32c-4.142,0-7.5,3.357-7.5,7.5v56c0,4.143,3.358,7.5,7.5,7.5c4.142,0,7.5-3.357,7.5-7.5v-56
				C171.516,35.358,168.158,32,164.016,32z"/>
			<path d="M220.016,0h-64c-12.958,0-23.5,10.542-23.5,23.5v64c0,28.058,20.933,51.305,48,54.979V304h-0.5
				c-8.547,0-15.5,6.953-15.5,15.5v120c0,12.958,10.542,23.5,23.5,23.5c12.958,0,23.5-10.542,23.5-23.5v-120
				c0-8.547-6.953-15.5-15.5-15.5h-0.5V142.48c27.067-3.675,48-26.921,48-54.979v-64C243.516,10.542,232.974,0,220.016,0z
				 M196.016,319c0.276,0,0.5,0.225,0.5,0.5v120c0,4.687-3.813,8.5-8.5,8.5c-4.687,0-8.5-3.813-8.5-8.5v-120
				c0-0.275,0.224-0.5,0.5-0.5H196.016z M228.516,87.5c0,22.332-18.168,40.5-40.5,40.5c-22.332,0-40.5-18.168-40.5-40.5v-64
				c0-4.687,3.813-8.5,8.5-8.5h64c4.687,0,8.5,3.813,8.5,8.5V87.5z"/>
			<path d="M324.112,135.591c4.424-4.709,6.73-11.108,6.327-17.557L323.502,7.033c-0.258-4.134-3.82-7.275-7.953-7.018
				c-4.134,0.259-7.276,3.819-7.018,7.953l6.938,111.002c0.148,2.367-0.665,4.622-2.289,6.351c-1.624,1.728-3.824,2.68-6.195,2.68
				h-13.938c-2.371,0-4.571-0.952-6.195-2.68c-1.624-1.729-2.437-3.983-2.289-6.351l6.938-111.002
				c0.258-4.134-2.883-7.694-7.018-7.953c-4.125-0.261-7.694,2.883-7.953,7.018l-6.938,111.002
				c-0.403,6.448,1.903,12.848,6.327,17.557c4.302,4.579,10.326,7.251,16.596,7.395V304h-0.5c-8.547,0-15.5,6.953-15.5,15.5v120
				c0,12.958,10.542,23.5,23.5,23.5s23.5-10.542,23.5-23.5v-120c0-8.547-6.953-15.5-15.5-15.5h-0.5V142.987
				C313.787,142.843,319.81,140.17,324.112,135.591z M308.016,319c0.276,0,0.5,0.225,0.5,0.5v120c0,4.687-3.813,8.5-8.5,8.5
				s-8.5-3.813-8.5-8.5v-120c0-0.275,0.224-0.5,0.5-0.5H308.016z"/>
		  </g>

	</symbol>

	<!-- take away symbol -->
	<symbol id="takeaway" viewBox="0 0 512 512">
			<path d="M367.372,142.726c-0.413-8.257-7.213-14.726-15.481-14.726H298.12l-12.974-82.169C280.953,19.274,258.396,0,231.49,0
				c-26.885,0-49.442,19.274-53.635,45.831L164.881,128H111.11c-8.268,0-15.068,6.469-15.481,14.726l-15.2,304
				c-0.211,4.22,1.338,8.396,4.25,11.457S91.685,463,95.911,463h271.18c4.225,0,8.318-1.756,11.23-4.817s4.461-7.236,4.25-11.457
				L367.372,142.726z M192.672,48.171C195.708,28.95,212.032,15,231.511,15c19.458,0,35.784,13.95,38.819,33.171L282.935,128
				H180.068L192.672,48.171z M367.453,447.845C367.305,448,367.149,448,367.091,448H95.911c-0.059,0-0.214,0-0.362-0.155
				c-0.148-0.155-0.14-0.311-0.137-0.369l15.2-304c0.013-0.267,0.233-0.476,0.5-0.476h51.402l-2.421,15.33
				c-0.646,4.092,2.147,7.932,6.238,8.578c0.396,0.063,0.79,0.093,1.179,0.093c3.626,0,6.815-2.636,7.399-6.331l2.79-17.67h107.604
				l2.79,17.67c0.646,4.091,4.483,6.88,8.578,6.238c4.091-0.646,6.884-4.486,6.238-8.578l-2.42-15.33h51.402
				c0.267,0,0.486,0.209,0.5,0.476l15.2,304C367.593,447.534,367.601,447.689,367.453,447.845z"/>
			<path d="M231.501,192c-4.142,0-7.5,3.357-7.5,7.5V240h-9v-40.5c0-4.143-3.358-7.5-7.5-7.5c-4.142,0-7.5,3.357-7.5,7.5V240h-9
				v-40.5c0-4.143-3.358-7.5-7.5-7.5c-4.142,0-7.5,3.357-7.5,7.5v56c0,12.958,10.542,23.5,23.5,23.5h0.5v128.5
				c0,4.143,3.358,7.5,7.5,7.5c4.142,0,7.5-3.357,7.5-7.5V279h0.5c12.958,0,23.5-10.542,23.5-23.5v-56
				C239.001,195.357,235.643,192,231.501,192z M224.001,255.5c0,4.687-3.813,8.5-8.5,8.5h-16c-4.687,0-8.5-3.813-8.5-8.5V255h33
				V255.5z"/>
			<path d="M287.719,206.754c-0.816-8.162-7.617-14.317-15.82-14.317c-8.767,0-15.899,7.133-15.899,15.899V407.5
				c0,4.143,3.358,7.5,7.5,7.5s7.5-3.357,7.5-7.5V359h6.717c6.653,0,13.02-2.837,17.47-7.782s6.6-11.576,5.9-18.191L287.719,206.754
				z M284.036,341.186C282.403,343,280.159,344,277.718,344H271V208.336c0-0.496,0.403-0.899,0.899-0.899
				c0.464,0,0.849,0.348,0.899,0.853l13.372,126.316C286.427,337.033,285.669,339.37,284.036,341.186z"/>
	</symbol>
</svg>